<svg id="Layer_1" data-name="Layer 1" xmlns="http://www.w3.org/2000/svg" viewBox="0 0 300 300"><title>nav</title><path d="M184.5,46.86l-5.28-1.1-3.67-18.51L164.94,42.81l-5.29-1.1-5.32-26.84,1.12.24,4.74,24L174,18.94l1.06.22L176.36,26l3.43,17.14L193.53,23l6.34,1.32Z"/><path d="M223.93,40.49a13.19,13.19,0,0,1,1.74,6.58,13.09,13.09,0,0,1-6.75,11.32A13.22,13.22,0,0,1,212.3,60a13.44,13.44,0,0,1-6.76-2l-1.18-.7a13.65,13.65,0,0,1-5-5,12.91,12.91,0,0,1-1.73-6.58,13.24,13.24,0,0,1,6.76-11.34,13,13,0,0,1,6.6-1.59,13.66,13.66,0,0,1,6.81,2l1.18.7A13.51,13.51,0,0,1,223.93,40.49ZM214.74,55.1a11.56,11.56,0,0,0,5.1.15,4.35,4.35,0,0,0,3.51-5.87A11.7,11.7,0,0,0,220.78,45,19.48,19.48,0,0,0,216,41l-1.67-1a19.84,19.84,0,0,0-5.74-2.35,11.68,11.68,0,0,0-5.12-.17A4.37,4.37,0,0,0,200,43.4a11.71,11.71,0,0,0,2.58,4.43,19.58,19.58,0,0,0,4.8,3.93l1.67,1A19.58,19.58,0,0,0,214.74,55.1Z"/><path d="M237.33,84.79a2.6,2.6,0,0,1-1.85-.8,5.86,5.86,0,0,1-1.58-2.73,6,6,0,0,1,0-2.76,25.83,25.83,0,0,1,1.16-3.38c.5-1.31.87-2.34,1.09-3.08l.95-2.45L228,60l-7.67,7.29-.72-.75L237.9,49.19l.72.76,0,0,8.19,8.61a16.48,16.48,0,0,1,3.7,5.2,4.62,4.62,0,0,1-.24,3.92,20,20,0,0,1-3.85,4.57,4.89,4.89,0,0,1-3.8,1.2,6,6,0,0,1-3.62-2l-1-1.09L235.83,76a20.49,20.49,0,0,0-.92,3,4.75,4.75,0,0,0,0,2.35,2.69,2.69,0,0,1,.66-1,2.51,2.51,0,0,1,1.89-.73,2.6,2.6,0,0,1,1.83.82,2.55,2.55,0,0,1,.73,1.87,2.46,2.46,0,0,1-.8,1.82A2.54,2.54,0,0,1,237.33,84.79Zm5.36-12.33a3.27,3.27,0,0,0,2.95-.92,2.82,2.82,0,0,0,.86-2.94,8,8,0,0,0-2.07-3.41l-10.38-10.9-5.27,5,10.95,11.5A5.28,5.28,0,0,0,242.69,72.46Z"/><path d="M250.68,104.18a3.87,3.87,0,0,0-.55,2.11,2.69,2.69,0,0,1,.91-.81,2.52,2.52,0,0,1,2-.21,2.67,2.67,0,0,1,1.76,3.27,2.44,2.44,0,0,1-1.22,1.53,2.48,2.48,0,0,1-2.1.13,3.08,3.08,0,0,1-1.7-1.48,5.48,5.48,0,0,1-.75-2.62,5.29,5.29,0,0,1,.57-2.31,21.18,21.18,0,0,1,1.79-2.8l4.27-5.9-13.59-1.84-3-5.55L261.3,75.76l.49.92L242.14,87.25,269.5,91,273,97.47l-16.14-2.19-4.61,6.33A16.88,16.88,0,0,0,250.68,104.18Z"/><path d="M279.81,118a14.28,14.28,0,0,1-.44,9.06,13,13,0,0,1-6.11,6.49l-.65-1.4a10.73,10.73,0,0,0,1.9-5.47,21,21,0,0,0-.64-6.33l-.47-1.89a28.5,28.5,0,0,0-1.53-4.5,14.65,14.65,0,0,0-2.29-3.83A2.66,2.66,0,0,0,267,109a1.42,1.42,0,0,0-1,1,7,7,0,0,0-.07,2.66,43.56,43.56,0,0,0,1,5l2.33,9.48a13.08,13.08,0,0,1,.38,4.63,2.94,2.94,0,0,1-2.49,2.63A8.56,8.56,0,0,1,262,134a11,11,0,0,1-4.64-3.37,14.29,14.29,0,0,1-2.91-5.93Q251.8,114,260.9,108.78l.64,1.37a13.34,13.34,0,0,0-1.93,5.49,19,19,0,0,0,.61,6.36l.47,1.88a24.41,24.41,0,0,0,1.59,4.52,13.92,13.92,0,0,0,2.34,3.71,2.64,2.64,0,0,0,2.55,1.12,1.73,1.73,0,0,0,1.29-1.6,9.92,9.92,0,0,0-.12-3.21c-.22-1.26-.6-3-1.15-5.21l-1.91-7.79a15.34,15.34,0,0,1-.54-5.12,2.77,2.77,0,0,1,2.32-2.55,8.45,8.45,0,0,1,4.36.32,11.6,11.6,0,0,1,5,3.19A14.34,14.34,0,0,1,279.81,118Z"/><path d="M253,185l1.12-5.28,18.53-3.58-15.51-10.69,1.12-5.28L285.1,155l-.24,1.13-24,4.62,20.09,13.87-.22,1.06-6.86,1.3-17.17,3.36,20.11,13.83-1.34,6.33Z"/><path d="M259.17,224.48a13.19,13.19,0,0,1-6.59,1.7,12.67,12.67,0,0,1-6.55-1.87,12.82,12.82,0,0,1-4.74-4.93,13.22,13.22,0,0,1-1.57-6.63,13.45,13.45,0,0,1,2-6.75l.7-1.17a13.64,13.64,0,0,1,5.06-5,13,13,0,0,1,6.6-1.7,13.21,13.21,0,0,1,11.3,6.8,13,13,0,0,1,1.56,6.62,13.69,13.69,0,0,1-2,6.8l-.7,1.17A13.56,13.56,0,0,1,259.17,224.48Zm-14.57-9.27a11.63,11.63,0,0,0-.17,5.11,4.36,4.36,0,0,0,5.85,3.53,11.79,11.79,0,0,0,4.44-2.54,19.68,19.68,0,0,0,3.94-4.77l1-1.67a19.81,19.81,0,0,0,2.39-5.73,11.69,11.69,0,0,0,.18-5.12,4.37,4.37,0,0,0-5.86-3.53,11.74,11.74,0,0,0-4.44,2.56,19.76,19.76,0,0,0-4,4.78l-1,1.67A19.47,19.47,0,0,0,244.6,215.21Z"/><path d="M214.82,237.67a2.6,2.6,0,0,1,.8-1.85,5.84,5.84,0,0,1,2.74-1.56,6,6,0,0,1,2.76,0,26.62,26.62,0,0,1,3.38,1.17c1.31.51,2.33.88,3.07,1.11l2.44,1,9.62-9.06-7.27-7.7.76-.72,17.29,18.34-.76.71,0,0L241,247.24a16.54,16.54,0,0,1-5.21,3.68,4.68,4.68,0,0,1-3.93-.26,20.28,20.28,0,0,1-4.54-3.88,4.86,4.86,0,0,1-1.19-3.8,6,6,0,0,1,2-3.61l1.1-1-5.56-2.12a20.26,20.26,0,0,0-3-.93,4.5,4.5,0,0,0-2.34,0,2.61,2.61,0,0,1,1,.66,2.62,2.62,0,0,1-.11,3.72,2.56,2.56,0,0,1-1.86.72,2.45,2.45,0,0,1-1.83-.81A2.53,2.53,0,0,1,214.82,237.67Zm12.3,5.41a3.26,3.26,0,0,0,.91,3,2.82,2.82,0,0,0,2.93.88,8,8,0,0,0,3.42-2.07l11-10.32-5-5.29-11.55,10.89A5.33,5.33,0,0,0,227.12,243.08Z"/><path d="M195.36,250.93a3.85,3.85,0,0,0-2.11-.55,2.6,2.6,0,0,1,.81.91,2.52,2.52,0,0,1,.2,2,2.64,2.64,0,0,1-3.27,1.74,2.38,2.38,0,0,1-1.53-1.23,2.46,2.46,0,0,1-.12-2.09,3,3,0,0,1,1.49-1.69,5.48,5.48,0,0,1,2.62-.75,5.31,5.31,0,0,1,2.31.59,20.77,20.77,0,0,1,2.79,1.8l5.88,4.29,1.91-13.57,5.56-3,11.84,22.25-.93.49-10.48-19.7-3.88,27.34L202,273.27l2.26-16.13-6.3-4.64A17.89,17.89,0,0,0,195.36,250.93Z"/><path d="M181.4,280a14.33,14.33,0,0,1-9.06-.49,13,13,0,0,1-6.46-6.14l1.4-.64a10.89,10.89,0,0,0,5.46,1.93,21.23,21.23,0,0,0,6.33-.62l1.89-.46a28.1,28.1,0,0,0,4.51-1.51,14.43,14.43,0,0,0,3.84-2.27,2.63,2.63,0,0,0,1.18-2.62,1.44,1.44,0,0,0-1-1.05,7,7,0,0,0-2.66-.08,40.75,40.75,0,0,0-5,1l-9.48,2.28a13.09,13.09,0,0,1-4.64.36,2.94,2.94,0,0,1-2.62-2.5,8.57,8.57,0,0,1,.38-5.05,11,11,0,0,1,3.38-4.63,14.43,14.43,0,0,1,6-2.88q10.74-2.58,15.9,6.54l-1.37.63a13.32,13.32,0,0,0-5.48-2,18.9,18.9,0,0,0-6.36.59l-1.89.45a25.69,25.69,0,0,0-4.53,1.57,14.84,14.84,0,0,0-3.72,2.32,2.62,2.62,0,0,0-1.12,2.55,1.71,1.71,0,0,0,1.59,1.3,9.86,9.86,0,0,0,3.21-.1c1.26-.22,3-.59,5.21-1.13l7.81-1.88a15.41,15.41,0,0,1,5.11-.51,2.77,2.77,0,0,1,2.54,2.34,8.34,8.34,0,0,1-.34,4.35,11.48,11.48,0,0,1-3.21,4.94A14.27,14.27,0,0,1,181.4,280Z"/><path d="M114.51,252.87l5.27,1.14,3.5,18.55L134,257.1l5.28,1.14,5.08,26.89-1.13-.25-4.51-24-14,20-1.05-.23-1.28-6.87-3.27-17.18-13.92,20-6.34-1.37Z"/><path d="M75,258.87a13.12,13.12,0,0,1-1.67-6.6A13.06,13.06,0,0,1,80.19,241a13.12,13.12,0,0,1,6.63-1.54,13.43,13.43,0,0,1,6.75,2l1.17.71a13.61,13.61,0,0,1,5,5.08,13,13,0,0,1,1.67,6.6,13.23,13.23,0,0,1-6.86,11.27,13,13,0,0,1-6.62,1.53,13.54,13.54,0,0,1-6.79-2.07l-1.17-.71A13.42,13.42,0,0,1,75,258.87Zm9.33-14.53a11.63,11.63,0,0,0-5.1-.2A4.36,4.36,0,0,0,75.68,250a11.7,11.7,0,0,0,2.52,4.45,19.66,19.66,0,0,0,4.75,4l1.66,1a19.82,19.82,0,0,0,5.72,2.41,11.59,11.59,0,0,0,5.12.21A4.36,4.36,0,0,0,99,256.18a11.63,11.63,0,0,0-2.54-4.45,19.71,19.71,0,0,0-4.76-4l-1.66-1A19.57,19.57,0,0,0,84.34,244.34Z"/><path d="M62,214.47a2.54,2.54,0,0,1,1.84.81A5.77,5.77,0,0,1,65.43,218a6,6,0,0,1-.05,2.76,26.63,26.63,0,0,1-1.19,3.38c-.51,1.3-.89,2.33-1.12,3.07l-1,2.43,9,9.66,7.73-7.23.71.76L61.15,250.06l-.71-.76,0,0-8.11-8.68a16.49,16.49,0,0,1-3.65-5.23,4.62,4.62,0,0,1,.27-3.92,20.26,20.26,0,0,1,3.9-4.53,4.89,4.89,0,0,1,3.81-1.17,6,6,0,0,1,3.6,2l1,1.1,2.15-5.55a20,20,0,0,0,.94-3,4.62,4.62,0,0,0,0-2.34,2.52,2.52,0,0,1-.67,1,2.46,2.46,0,0,1-1.89.71,2.63,2.63,0,0,1-2.53-2.7,2.42,2.42,0,0,1,.81-1.82A2.53,2.53,0,0,1,62,214.47Zm-5.47,12.28a3.23,3.23,0,0,0-3,.9,2.81,2.81,0,0,0-.89,2.92A8,8,0,0,0,54.77,234L65,245l5.31-5-10.83-11.6A5.38,5.38,0,0,0,56.57,226.75Z"/><path d="M48.86,195a4,4,0,0,0,.57-2.11,2.63,2.63,0,0,1-.92.81,2.6,2.6,0,0,1-3.55-1.1,2.56,2.56,0,0,1-.2-2A2.45,2.45,0,0,1,46,189a2.51,2.51,0,0,1,2.1-.11,3.08,3.08,0,0,1,1.68,1.5,5.55,5.55,0,0,1,.73,2.62,5.29,5.29,0,0,1-.6,2.31,20.64,20.64,0,0,1-1.81,2.79L43.78,204l13.57,2,2.93,5.58L38,223.27l-.48-.92L57.25,212l-27.33-4-3.42-6.5,16.12,2.34,4.66-6.28A17.54,17.54,0,0,0,48.86,195Z"/><path d="M19.85,180.86a14.32,14.32,0,0,1,.53-9.06,13.09,13.09,0,0,1,6.17-6.43l.63,1.41a10.79,10.79,0,0,0-1.95,5.45,20.84,20.84,0,0,0,.59,6.33l.45,1.9A28.27,28.27,0,0,0,27.76,185,14.49,14.49,0,0,0,30,188.82,2.61,2.61,0,0,0,32.63,190a1.43,1.43,0,0,0,1-1,6.79,6.79,0,0,0,.09-2.67,41.82,41.82,0,0,0-.93-5l-2.24-9.5a12.78,12.78,0,0,1-.34-4.63,2.93,2.93,0,0,1,2.51-2.61,8.42,8.42,0,0,1,5,.4,11.07,11.07,0,0,1,4.62,3.4,14.44,14.44,0,0,1,2.85,6q2.53,10.76-6.61,15.87l-.62-1.37a13.37,13.37,0,0,0,2-5.48,19.08,19.08,0,0,0-.56-6.36L39,175.15a25.3,25.3,0,0,0-1.55-4.53,14.27,14.27,0,0,0-2.3-3.73,2.63,2.63,0,0,0-2.55-1.14,1.72,1.72,0,0,0-1.3,1.58,9.89,9.89,0,0,0,.09,3.22c.21,1.26.58,3,1.1,5.21l1.84,7.82a15.1,15.1,0,0,1,.49,5.12,2.77,2.77,0,0,1-2.34,2.53,8.52,8.52,0,0,1-4.36-.36,11.6,11.6,0,0,1-4.93-3.24A14.36,14.36,0,0,1,19.85,180.86Z"/><path d="M47.29,114.09l-1.17,5.28-18.56,3.41L43,133.6l-1.16,5.27-26.91,5,.25-1.12L39.2,138.3l-20-14.05.24-1L26.34,122l17.19-3.2-20-14L25,98.42Z"/><path d="M41.47,74.56a13.26,13.26,0,0,1,6.61-1.64A13.08,13.08,0,0,1,59.3,79.83a13.11,13.11,0,0,1,1.52,6.64,13.49,13.49,0,0,1-2.07,6.73L58,94.37a13.68,13.68,0,0,1-5.1,4.93,13,13,0,0,1-6.61,1.64A13.24,13.24,0,0,1,35.08,94a13,13,0,0,1-1.5-6.63,13.61,13.61,0,0,1,2.1-6.78l.71-1.17A13.59,13.59,0,0,1,41.47,74.56ZM56,84a11.65,11.65,0,0,0,.22-5.1,4.37,4.37,0,0,0-5.83-3.59,11.84,11.84,0,0,0-4.45,2.5,19.9,19.9,0,0,0-4,4.74l-1,1.65a19.56,19.56,0,0,0-2.43,5.71A11.47,11.47,0,0,0,38.23,95a4.36,4.36,0,0,0,5.82,3.58,11.67,11.67,0,0,0,4.47-2.51,19.92,19.92,0,0,0,4-4.75l1-1.66A19.46,19.46,0,0,0,56,84Z"/><path d="M85.94,61.78a2.61,2.61,0,0,1-.82,1.85,5.61,5.61,0,0,1-5.51,1.46,25.08,25.08,0,0,1-3.37-1.19q-2-.8-3.06-1.14l-2.43-1-9.7,9,7.19,7.76-.77.71L50.36,60.73l.76-.71,0,0L59.86,52a16.61,16.61,0,0,1,5.25-3.63,4.64,4.64,0,0,1,3.93.29,20.4,20.4,0,0,1,4.51,3.92,4.89,4.89,0,0,1,1.15,3.81,6,6,0,0,1-2,3.59l-1.11,1,5.55,2.17a19.07,19.07,0,0,0,3,1,4.63,4.63,0,0,0,2.34,0,2.63,2.63,0,0,1-1-.67,2.64,2.64,0,0,1,2-4.42,2.5,2.5,0,0,1,1.82.82A2.55,2.55,0,0,1,85.94,61.78ZM73.69,56.25a3.28,3.28,0,0,0-.88-3,2.82,2.82,0,0,0-2.92-.9,8.1,8.1,0,0,0-3.45,2l-11,10.22L60.34,70,72,59.2A5.35,5.35,0,0,0,73.69,56.25Z"/><path d="M105.51,48.71a4,4,0,0,0,2.1.57,2.71,2.71,0,0,1-.8-.92,2.55,2.55,0,0,1-.18-2,2.59,2.59,0,0,1,1.3-1.53,2.56,2.56,0,0,1,2-.18,2.43,2.43,0,0,1,1.52,1.24,2.52,2.52,0,0,1,.1,2.1A3,3,0,0,1,110,49.64a5.41,5.41,0,0,1-2.62.72,5.17,5.17,0,0,1-2.31-.61,20.87,20.87,0,0,1-2.77-1.82l-5.84-4.35-2,13.56-5.59,2.91L77.23,37.7l.93-.48L88.47,57,92.59,29.7l6.52-3.39L96.7,42.42l6.26,4.7A18.22,18.22,0,0,0,105.51,48.71Z"/><path d="M119.72,19.76a14.35,14.35,0,0,1,9.05.57,13.07,13.07,0,0,1,6.41,6.2l-1.41.62a10.87,10.87,0,0,0-5.45-2,21.14,21.14,0,0,0-6.33.56l-1.9.44a28.2,28.2,0,0,0-4.52,1.47,14.54,14.54,0,0,0-3.86,2.24,2.62,2.62,0,0,0-1.2,2.61,1.43,1.43,0,0,0,1,1,6.86,6.86,0,0,0,2.66.11,42.81,42.81,0,0,0,5-.91l9.51-2.2a13,13,0,0,1,4.64-.32,2.94,2.94,0,0,1,2.59,2.52,8.51,8.51,0,0,1-.42,5,11.09,11.09,0,0,1-3.42,4.6,14.39,14.39,0,0,1-6,2.83q-10.77,2.49-15.85-6.69l1.38-.61a13.35,13.35,0,0,0,5.47,2,19,19,0,0,0,6.36-.53l1.89-.44a26.1,26.1,0,0,0,4.54-1.53,14.33,14.33,0,0,0,3.74-2.29,2.62,2.62,0,0,0,1.15-2.54,1.73,1.73,0,0,0-1.58-1.31,9.76,9.76,0,0,0-3.21.07q-1.89.31-5.22,1.08l-7.82,1.81a15.31,15.31,0,0,1-5.12.47,2.77,2.77,0,0,1-2.52-2.36,8.5,8.5,0,0,1,.37-4.35,11.6,11.6,0,0,1,3.27-4.92A14.33,14.33,0,0,1,119.72,19.76Z"/></svg>