<svg id="Layer_1" data-name="Layer 1" xmlns="http://www.w3.org/2000/svg" viewBox="0 0 300 300"><title>nav</title><path d="M164.27,57.4,170,75.13l-.77-.1-2-6.33-9.48-1.23L154,73.07l-4.39-.56,10.23-15.68Zm-6.17,9.42L166.92,68l-3.16-9.8Z"/><path d="M186.9,79.41a3,3,0,0,1-2.25,1.06,10.5,10.5,0,0,1-4.37-1l-8.71-3.57L178,60.27l8,3.27a11.43,11.43,0,0,1,3.85,2.24,2.81,2.81,0,0,1,.89,2.28,14,14,0,0,1-1.05,3.47,2.58,2.58,0,0,1-.84,1,3,3,0,0,1-1.5.55,3.89,3.89,0,0,1,1.16,1.54,2.34,2.34,0,0,1,0,1.87A13,13,0,0,1,186.9,79.41Zm-.45-2.58a1.56,1.56,0,0,0,1.42-.93,1.35,1.35,0,0,0-.07-1.22,3.35,3.35,0,0,0-.91-1.05,5,5,0,0,0-1.08-.65l-10.54-4.31-1.46,3.57,10,4.09A5.39,5.39,0,0,0,186.45,76.83ZM185.36,72a4.29,4.29,0,0,0,2.07.3,1.61,1.61,0,0,0,1.45-1,1.52,1.52,0,0,0-.47-1.77,6.41,6.41,0,0,0-2.11-1.34L177,64.43,175.53,68Z"/><path d="M209.11,78.41a8.73,8.73,0,0,1,.7,4.5,8.41,8.41,0,0,1-1.66,4.24,8.51,8.51,0,0,1-3.6,2.84,8.77,8.77,0,0,1-4.51.62,9,9,0,0,1-4.36-1.78l-.74-.55a9.09,9.09,0,0,1-3-3.69,8.73,8.73,0,0,1-.7-4.5,8.59,8.59,0,0,1,1.69-4.25A8.49,8.49,0,0,1,196.52,73a8.7,8.7,0,0,1,4.5-.61,9.06,9.06,0,0,1,4.4,1.8l.73.54A9,9,0,0,1,209.11,78.41ZM202,87.51a7.76,7.76,0,0,0,3.38.45,2.9,2.9,0,0,0,2.73-3.67,7.68,7.68,0,0,0-1.4-3.11,12.9,12.9,0,0,0-2.92-2.94l-1-.78a13.27,13.27,0,0,0-3.66-1.95,7.73,7.73,0,0,0-3.4-.46A2.91,2.91,0,0,0,193,78.72a7.8,7.8,0,0,0,1.41,3.12,13.2,13.2,0,0,0,2.93,3l1,.77A12.58,12.58,0,0,0,202,87.51Z"/><path d="M210.34,92.68a6.61,6.61,0,0,0,.24,3.14A9.31,9.31,0,0,0,212.32,99a9.68,9.68,0,0,0,2.78,2.37,6.49,6.49,0,0,0,3,.9,3.68,3.68,0,0,0,2.48-.79l6.29-5.12.45.55L221.08,102a10.46,10.46,0,0,1-3.94,2,8.83,8.83,0,0,1-4.42.07,6.7,6.7,0,0,1-3.66-2.37v0a6.62,6.62,0,0,1-1.58-4.12,8.8,8.8,0,0,1,1-4.3,10.61,10.61,0,0,1,2.73-3.41l6.26-5.08.44.54-6.3,5.11A3.66,3.66,0,0,0,210.34,92.68Z"/><path d="M218.73,116.24l11.39-5.48-3.48-7.24,3.8-1.83,7.28,15.15-3.8,1.82-3.49-7.27L219,116.87Z"/><path d="M240.86,144.68l-15-8.18-.23-4.69L243,141.3l.2,4-14.51.71,14.95,8.19.19,4L227,159l0-.7,14.58-.72-15-8.18-.19-4Z"/><path d="M226.47,176.31l-4.09-1,3.47-13.9,16.35,4.08-3.46,13.9-4.09-1L238,165.08l-3.76-.94-2.84,11.36-.67-.17L233.52,164l-3.74-.93Z"/><path d="M226.22,203.51l-18.4-2.81.43-.64,6.57,1,5.32-7.95-3.4-5.75,2.47-3.68,9.48,16.14Zm-5.69-9.72-4.94,7.39,10.18,1.54Z"/><path d="M196.45,214a3,3,0,0,1,.06-2.49,10.37,10.37,0,0,1,2.85-3.45l7.06-6.24,11.16,12.64-6.48,5.72a11.36,11.36,0,0,1-3.71,2.46,2.81,2.81,0,0,1-2.43-.21,14.2,14.2,0,0,1-2.65-2.49,2.45,2.45,0,0,1-.49-1.17,3,3,0,0,1,.17-1.59,3.91,3.91,0,0,1-1.9.36,2.34,2.34,0,0,1-1.67-.84A13.47,13.47,0,0,1,196.45,214Zm2.52.74a1.57,1.57,0,0,0,.2,1.68,1.36,1.36,0,0,0,1.13.48,3.34,3.34,0,0,0,1.35-.35,4.54,4.54,0,0,0,1-.68l8.54-7.54-2.55-2.89-8.11,7.16A5.53,5.53,0,0,0,199,214.75Zm4.77,1.15a4.28,4.28,0,0,0-1.18,1.71,1.6,1.6,0,0,0,.25,1.74,1.52,1.52,0,0,0,1.79.37,6.38,6.38,0,0,0,2.14-1.3l7.53-6.65-2.57-2.9Z"/><path d="M187.55,234.36A8.76,8.76,0,0,1,183.2,233a8.74,8.74,0,0,1-4-7.85,8.71,8.71,0,0,1,1.43-4.32,9,9,0,0,1,3.53-3.13l.81-.42a9.15,9.15,0,0,1,4.64-1A8.67,8.67,0,0,1,197,221a8.54,8.54,0,0,1,1,4.46,8.8,8.8,0,0,1-1.45,4.31,9.13,9.13,0,0,1-3.55,3.15l-.82.41A9,9,0,0,1,187.55,234.36Zm-5-10.4a7.86,7.86,0,0,0-1.9,2.84,3.12,3.12,0,0,0,.07,2.55,3.06,3.06,0,0,0,2,1.52,7.69,7.69,0,0,0,3.42.12,13.34,13.34,0,0,0,3.92-1.32l1.16-.59a13.33,13.33,0,0,0,3.37-2.42,7.76,7.76,0,0,0,1.91-2.85,2.91,2.91,0,0,0-2.08-4.07,7.9,7.9,0,0,0-3.43-.11,13.21,13.21,0,0,0-3.93,1.32l-1.16.6A12.89,12.89,0,0,0,182.53,224Z"/><path d="M174.18,229.16a6.57,6.57,0,0,0-2.92-1.18,9.41,9.41,0,0,0-3.65.12,9.74,9.74,0,0,0-3.37,1.44,6.5,6.5,0,0,0-2.15,2.31,3.75,3.75,0,0,0-.4,2.57l1.78,7.92-.68.15L161,234.62a10.29,10.29,0,0,1,0-4.42,8.83,8.83,0,0,1,1.9-4,6.68,6.68,0,0,1,3.75-2.22h0a6.7,6.7,0,0,1,4.39.42,8.77,8.77,0,0,1,3.41,2.82,10.38,10.38,0,0,1,1.84,4l1.77,7.87-.68.16-1.78-7.92A3.67,3.67,0,0,0,174.18,229.16Z"/><path d="M149.37,226.18l-.21,12.65,8.05.13-.07,4.21-16.81-.27.07-4.22,8.07.13.2-12.64Z"/><path d="M114,233.45l14-9.84,4.31,1.88-16.2,11.34-3.64-1.59,5.79-13.31-14,9.76-3.65-1.58,6.73-15.46.64.27-5.82,13.39,14-9.83,3.64,1.58Z"/><path d="M92.09,206.47l2.73-3.21,10.91,9.29L94.8,225.39,83.89,216.1l2.73-3.21L97,221.75l2.51-2.95-8.91-7.59.46-.53,8.91,7.59,2.5-2.93Z"/><path d="M67.81,194.23,78.47,179l.39.67-3.81,5.44,4.77,8.29,6.66-.51,2.21,3.84L70,198.07Zm11.24-.81-4.44-7.69-5.89,8.45Z"/><path d="M71.59,162.85a3,3,0,0,1,2.2,1.15,10.39,10.39,0,0,1,1.83,4.1l2.45,9.1-16.29,4.37-2.24-8.34a11.51,11.51,0,0,1-.55-4.42,2.83,2.83,0,0,1,1.27-2.09,13.81,13.81,0,0,1,3.4-1.26,2.37,2.37,0,0,1,1.27.08,2.9,2.9,0,0,1,1.35.86,3.89,3.89,0,0,1,.53-1.86,2.33,2.33,0,0,1,1.49-1.13A13.53,13.53,0,0,1,71.59,162.85Zm-4.93,5.69a4.26,4.26,0,0,0-1-1.82,1.6,1.6,0,0,0-1.67-.55,1.52,1.52,0,0,0-1.12,1.44,6.42,6.42,0,0,0,.21,2.5l2.6,9.7,3.75-1Zm3.15-3.76a1.58,1.58,0,0,0-1.6-.57,1.38,1.38,0,0,0-.93.8,3.21,3.21,0,0,0-.28,1.36,5,5,0,0,0,.13,1.25l3,11,3.72-1L71,167.17A5.45,5.45,0,0,0,69.81,164.78Z"/><path d="M57.32,145.9a8.71,8.71,0,0,1,3.13-3.3,8.5,8.5,0,0,1,4.38-1.27,8.63,8.63,0,0,1,4.44,1.12,9,9,0,0,1,4.49,7.75l0,.91a9,9,0,0,1-1.11,4.62,8.71,8.71,0,0,1-3.13,3.3,8.88,8.88,0,0,1-8.83.15,8.77,8.77,0,0,1-3.23-3.2,9.17,9.17,0,0,1-1.26-4.58v-.92A8.91,8.91,0,0,1,57.32,145.9Zm11.55.09a7.81,7.81,0,0,0-1.71-3A3.14,3.14,0,0,0,64.84,142a3.09,3.09,0,0,0-2.26,1.14,7.93,7.93,0,0,0-1.61,3,13.16,13.16,0,0,0-.55,4.1l0,1.3a13.44,13.44,0,0,0,.68,4.1,7.86,7.86,0,0,0,1.71,3,2.92,2.92,0,0,0,4.58-.08,7.86,7.86,0,0,0,1.61-3,13.34,13.34,0,0,0,.55-4.12l0-1.3A13.26,13.26,0,0,0,68.87,146Z"/><path d="M67.92,136.18a6.66,6.66,0,0,0,2.35-2.09,9.55,9.55,0,0,0,1.5-3.33,9.73,9.73,0,0,0,.2-3.66,6.45,6.45,0,0,0-1.12-2.94,3.69,3.69,0,0,0-2.13-1.5l-7.89-1.9.16-.68L68.84,122a10.46,10.46,0,0,1,4,1.94,8.73,8.73,0,0,1,2.73,3.47,6.63,6.63,0,0,1,.34,4.34v0a6.61,6.61,0,0,1-2.31,3.75,8.81,8.81,0,0,1-4,1.81,10.5,10.5,0,0,1-4.37-.1l-7.84-1.89.17-.68,7.89,1.9A3.59,3.59,0,0,0,67.92,136.18Z"/><path d="M81.58,115.23l-11.26-5.76-3.66,7.17-3.75-1.92,7.65-15,3.76,1.92-3.68,7.18,11.26,5.76Z"/><path d="M90.76,80.4l2.61,16.9-3.58,3-3-19.54,3-2.57L99.2,89.31,96.63,72.47l3-2.57,10.88,12.87-.53.46L100.6,72.08,103.21,89l-3,2.56Z"/><path d="M124.66,72.65l1.67,3.87-13.16,5.67L106.5,66.71,119.66,61l1.67,3.87-12.57,5.41,1.54,3.56,10.75-4.63.27.64-10.75,4.63,1.53,3.54Z"/></svg>