<svg id="Layer_1" data-name="Layer 1" xmlns="http://www.w3.org/2000/svg" viewBox="0 0 300 300"><title>nav</title><path d="M174.44,76.94l-3.75-.77L168.1,63.05l-7.52,11-3.74-.77-3.78-19,.8.16,3.36,17L167,57.17l.75.15.95,4.86,2.43,12.14L180.83,60l4.5.93Z"/><path d="M202.37,72.43a9.36,9.36,0,0,1,1.23,4.66,9.25,9.25,0,0,1-4.78,8,9.31,9.31,0,0,1-4.69,1.14,9.6,9.6,0,0,1-4.79-1.4l-.83-.5A9.57,9.57,0,0,1,185,80.78a9.17,9.17,0,0,1-1.22-4.66,9.36,9.36,0,0,1,4.78-8A9.21,9.21,0,0,1,193.2,67,9.8,9.8,0,0,1,198,68.38l.83.5A9.56,9.56,0,0,1,202.37,72.43Zm-6.51,10.35a8.26,8.26,0,0,0,3.61.11,3.35,3.35,0,0,0,2.26-1.49,3.28,3.28,0,0,0,.22-2.67,8.13,8.13,0,0,0-1.81-3.13,13.79,13.79,0,0,0-3.39-2.78l-1.18-.71a14.07,14.07,0,0,0-4.07-1.67,8.2,8.2,0,0,0-3.63-.11,3.24,3.24,0,0,0-2.24,1.47,3.32,3.32,0,0,0-.24,2.69,8.17,8.17,0,0,0,1.83,3.14,13.88,13.88,0,0,0,3.4,2.78l1.18.71A13.87,13.87,0,0,0,195.86,82.78Z"/><path d="M211.86,103.81a1.81,1.81,0,0,1-1.31-.57,4,4,0,0,1-1.1-3.89,19.59,19.59,0,0,1,.82-2.39c.36-.93.62-1.66.78-2.18l.67-1.74-6.45-6.78-5.43,5.17-.51-.54,12.93-12.3.51.54,0,0,5.8,6.09a11.93,11.93,0,0,1,2.63,3.68,3.34,3.34,0,0,1-.17,2.79,14.63,14.63,0,0,1-2.74,3.23,3.44,3.44,0,0,1-2.69.85A4.24,4.24,0,0,1,213,94.41l-.74-.77-1.48,3.94a13.46,13.46,0,0,0-.65,2.12,3.31,3.31,0,0,0,0,1.66,1.81,1.81,0,0,1,.47-.73,1.75,1.75,0,0,1,1.34-.52,1.8,1.8,0,0,1,1.29.58,1.85,1.85,0,0,1,.52,1.32,1.76,1.76,0,0,1-.57,1.3A1.79,1.79,0,0,1,211.86,103.81Zm3.8-8.74a2.32,2.32,0,0,0,2.09-.65,2,2,0,0,0,.61-2.08,5.6,5.6,0,0,0-1.48-2.41l-7.34-7.73-3.73,3.55,7.75,8.15A3.77,3.77,0,0,0,215.66,95.07Z"/><path d="M221.31,117.53a2.77,2.77,0,0,0-.39,1.5,1.8,1.8,0,0,1,.65-.58,1.77,1.77,0,0,1,1.42-.15,1.87,1.87,0,0,1,1.25,2.31,1.7,1.7,0,0,1-.86,1.09,1.76,1.76,0,0,1-1.49.09,2.13,2.13,0,0,1-1.2-1.05,4,4,0,0,1-.54-1.85,3.86,3.86,0,0,1,.41-1.64,16,16,0,0,1,1.26-2l3-4.18-9.63-1.3-2.11-3.93,15.72-8.46.35.65-13.92,7.49,19.38,2.66,2.47,4.58-11.44-1.55-3.26,4.48A11.91,11.91,0,0,0,221.31,117.53Z"/><path d="M242,127.33a10.15,10.15,0,0,1-.31,6.42,9.29,9.29,0,0,1-4.33,4.6l-.46-1a7.65,7.65,0,0,0,1.35-3.87,14.88,14.88,0,0,0-.46-4.48l-.33-1.34a20.7,20.7,0,0,0-1.08-3.19,10.69,10.69,0,0,0-1.63-2.71,1.87,1.87,0,0,0-1.86-.83,1,1,0,0,0-.74.73,5.06,5.06,0,0,0,0,1.89,28.9,28.9,0,0,0,.69,3.52l1.65,6.71a9.54,9.54,0,0,1,.27,3.28,2.09,2.09,0,0,1-1.76,1.87,6.07,6.07,0,0,1-3.58-.25A7.81,7.81,0,0,1,226,136.3a10.07,10.07,0,0,1-2.06-4.21q-1.87-7.61,4.58-11.29l.44,1a9.62,9.62,0,0,0-1.36,3.89,13.44,13.44,0,0,0,.43,4.5l.33,1.34a18.29,18.29,0,0,0,1.13,3.2,9.83,9.83,0,0,0,1.66,2.63,1.88,1.88,0,0,0,1.81.79,1.22,1.22,0,0,0,.91-1.13,7.2,7.2,0,0,0-.08-2.28c-.16-.89-.43-2.12-.82-3.69l-1.36-5.52a10.77,10.77,0,0,1-.37-3.62,2,2,0,0,1,1.64-1.81,6,6,0,0,1,3.09.23,8.1,8.1,0,0,1,3.51,2.26A10.17,10.17,0,0,1,242,127.33Z"/><path d="M223,174.78l.79-3.74,13.13-2.54-11-7.56.79-3.74,19-3.69-.17.79-17,3.29,14.24,9.81-.16.75-4.86.93-12.16,2.38,14.25,9.79-1,4.49Z"/><path d="M227.33,202.75a9.27,9.27,0,0,1-4.67,1.21,9,9,0,0,1-4.64-1.32,9.07,9.07,0,0,1-3.35-3.5,9.29,9.29,0,0,1-1.12-4.69,9.62,9.62,0,0,1,1.42-4.79l.5-.83a9.69,9.69,0,0,1,3.59-3.52,9.12,9.12,0,0,1,9.32.14,8.88,8.88,0,0,1,3.35,3.48,9.2,9.2,0,0,1,1.11,4.68,9.68,9.68,0,0,1-1.44,4.82l-.5.83A9.55,9.55,0,0,1,227.33,202.75ZM217,196.19a8.32,8.32,0,0,0-.12,3.62,3.31,3.31,0,0,0,1.48,2.26,3.27,3.27,0,0,0,2.67.24,8.3,8.3,0,0,0,3.13-1.8,13.83,13.83,0,0,0,2.8-3.38l.71-1.18a14,14,0,0,0,1.69-4.06,8.39,8.39,0,0,0,.13-3.63,3.09,3.09,0,0,0-4.15-2.5,8.4,8.4,0,0,0-3.15,1.81,14.08,14.08,0,0,0-2.8,3.39l-.71,1.18A13.73,13.73,0,0,0,217,196.19Z"/><path d="M195.94,212.08a1.81,1.81,0,0,1,.57-1.31,4.23,4.23,0,0,1,1.93-1.11,4.32,4.32,0,0,1,2,0,19.89,19.89,0,0,1,2.39.83c.93.36,1.65.62,2.18.78l1.73.69,6.81-6.43-5.15-5.45.54-.51,12.25,13-.54.5h0l-6.12,5.77a11.7,11.7,0,0,1-3.69,2.61,3.28,3.28,0,0,1-2.78-.18,14.28,14.28,0,0,1-3.22-2.75,3.42,3.42,0,0,1-.84-2.69,4.18,4.18,0,0,1,1.39-2.56l.77-.73L202.16,211a13.06,13.06,0,0,0-2.11-.65,3.32,3.32,0,0,0-1.66,0,1.92,1.92,0,0,1,.73.47,1.8,1.8,0,0,1,.51,1.34,1.82,1.82,0,0,1-.59,1.3,1.8,1.8,0,0,1-1.32.51,1.81,1.81,0,0,1-1.78-1.93Zm8.71,3.83a2.34,2.34,0,0,0,.65,2.1,2,2,0,0,0,2.07.62,5.79,5.79,0,0,0,2.43-1.47l7.75-7.31L214,206.1l-8.18,7.72A3.82,3.82,0,0,0,204.65,215.91Z"/><path d="M182.14,221.48a2.91,2.91,0,0,0-1.49-.39,2,2,0,0,1,.58.65,1.86,1.86,0,0,1-2.18,2.66,1.73,1.73,0,0,1-1.09-.86,1.8,1.8,0,0,1-.08-1.49,2.13,2.13,0,0,1,1.05-1.2,3.87,3.87,0,0,1,1.86-.52,3.59,3.59,0,0,1,1.64.41,15.79,15.79,0,0,1,2,1.27l4.17,3,1.35-9.61,3.93-2.1,8.39,15.76-.65.34-7.43-13.95-2.74,19.37-4.59,2.45,1.6-11.43L184,222.59A12.85,12.85,0,0,0,182.14,221.48Z"/><path d="M172.27,242.08a10.11,10.11,0,0,1-6.41-.34,9.25,9.25,0,0,1-4.58-4.35l1-.45a7.82,7.82,0,0,0,3.87,1.36,14.93,14.93,0,0,0,4.49-.44l1.34-.32a22.14,22.14,0,0,0,3.19-1.07,10.47,10.47,0,0,0,2.72-1.62,1.84,1.84,0,0,0,.83-1.85,1,1,0,0,0-.73-.74,4.7,4.7,0,0,0-1.88-.06,28.61,28.61,0,0,0-3.53.68l-6.71,1.62a9.3,9.3,0,0,1-3.29.25,2.07,2.07,0,0,1-1.85-1.77,6,6,0,0,1,.26-3.57,7.84,7.84,0,0,1,2.4-3.28,10,10,0,0,1,4.21-2q7.62-1.84,11.27,4.62l-1,.45a9.49,9.49,0,0,0-3.89-1.39,13.71,13.71,0,0,0-4.5.42l-1.34.32a18.52,18.52,0,0,0-3.2,1.12,10,10,0,0,0-2.64,1.64,1.86,1.86,0,0,0-.79,1.81,1.21,1.21,0,0,0,1.12.92,6.91,6.91,0,0,0,2.28-.08c.89-.15,2.12-.42,3.69-.8l5.53-1.33a10.73,10.73,0,0,1,3.62-.36,2,2,0,0,1,1.8,1.65,5.88,5.88,0,0,1-.24,3.09,8.25,8.25,0,0,1-2.27,3.5A10.13,10.13,0,0,1,172.27,242.08Z"/><path d="M124.87,222.87l3.74.81,2.48,13.14,7.62-11,3.73.81,3.6,19-.79-.17-3.21-17-9.88,14.19-.75-.16-.9-4.87-2.32-12.16-9.86,14.19-4.49-1Z"/><path d="M96.93,227.14a9.25,9.25,0,0,1-1.19-4.67,9.28,9.28,0,0,1,4.85-8,9.3,9.3,0,0,1,4.7-1.09,9.48,9.48,0,0,1,4.77,1.44l.83.5a9.61,9.61,0,0,1,3.51,3.6,9.16,9.16,0,0,1-.17,9.32,9,9,0,0,1-3.5,3.34,9.2,9.2,0,0,1-4.69,1.09,9.78,9.78,0,0,1-4.81-1.46l-.82-.51A9.48,9.48,0,0,1,96.93,227.14Zm6.6-10.29a8.2,8.2,0,0,0-3.62-.14,3.33,3.33,0,0,0-2.26,1.47,3.27,3.27,0,0,0-.25,2.67A8.3,8.3,0,0,0,99.18,224a13.78,13.78,0,0,0,3.37,2.8l1.18.72a13.84,13.84,0,0,0,4,1.7,8.26,8.26,0,0,0,3.63.15,3.09,3.09,0,0,0,2.51-4.14,8.2,8.2,0,0,0-1.79-3.15,14,14,0,0,0-3.38-2.82l-1.18-.71A13.74,13.74,0,0,0,103.53,216.85Z"/><path d="M87.71,195.69a1.81,1.81,0,0,1,1.31.57,4.19,4.19,0,0,1,1.1,1.94,4.32,4.32,0,0,1,0,2,20.2,20.2,0,0,1-.84,2.39c-.37.93-.63,1.65-.79,2.17l-.69,1.73,6.39,6.84,5.48-5.12.5.54-13,12.19-.5-.54,0,0-5.75-6.15a11.59,11.59,0,0,1-2.59-3.7,3.28,3.28,0,0,1,.19-2.78,14.32,14.32,0,0,1,2.76-3.21,3.46,3.46,0,0,1,2.7-.83,4.3,4.3,0,0,1,2.55,1.4l.73.79,1.52-3.94a14.41,14.41,0,0,0,.67-2.11,3.32,3.32,0,0,0,0-1.66,1.94,1.94,0,0,1-.48.73,1.74,1.74,0,0,1-1.34.5,1.86,1.86,0,0,1-1.79-1.92,1.72,1.72,0,0,1,.57-1.28A1.77,1.77,0,0,1,87.71,195.69Zm-3.87,8.7a2.3,2.3,0,0,0-2.1.63,2,2,0,0,0-.63,2.07,5.72,5.72,0,0,0,1.46,2.44l7.28,7.78,3.76-3.52-7.68-8.21A3.78,3.78,0,0,0,83.84,204.39Z"/><path d="M78.38,181.88a2.88,2.88,0,0,0,.4-1.49,2.08,2.08,0,0,1-.65.57,1.86,1.86,0,0,1-2.52-.78,1.82,1.82,0,0,1-.14-1.41,1.78,1.78,0,0,1,2.36-1.16A2.14,2.14,0,0,1,79,178.67a3.87,3.87,0,0,1,.52,1.86,3.66,3.66,0,0,1-.42,1.63,14.32,14.32,0,0,1-1.28,2l-3.06,4.15,9.61,1.39,2.09,3.94L70.68,202l-.34-.66,14-7.37L65,191.1l-2.43-4.61L74,188.14l3.3-4.45A12.49,12.49,0,0,0,78.38,181.88Z"/><path d="M57.82,171.91a10.17,10.17,0,0,1,.37-6.41,9.3,9.3,0,0,1,4.37-4.56l.45,1a7.69,7.69,0,0,0-1.38,3.87,14.81,14.81,0,0,0,.42,4.48l.32,1.34a19.31,19.31,0,0,0,1.06,3.2,10.4,10.4,0,0,0,1.6,2.73,1.86,1.86,0,0,0,1.85.84,1,1,0,0,0,.74-.72,4.72,4.72,0,0,0,.07-1.89,28.58,28.58,0,0,0-.67-3.53l-1.59-6.72a9.53,9.53,0,0,1-.24-3.29A2.09,2.09,0,0,1,67,160.39a6.08,6.08,0,0,1,3.58.28,8.05,8.05,0,0,1,3.27,2.41,10.29,10.29,0,0,1,2,4.23q1.8,7.62-4.68,11.25l-.44-1a9.52,9.52,0,0,0,1.4-3.89,13.35,13.35,0,0,0-.39-4.5l-.32-1.34a18.21,18.21,0,0,0-1.1-3.21A10.3,10.3,0,0,0,68.67,162a1.85,1.85,0,0,0-1.8-.81,1.22,1.22,0,0,0-.92,1.13A6.79,6.79,0,0,0,66,164.6c.15.89.41,2.13.79,3.7l1.3,5.53a10.76,10.76,0,0,1,.35,3.63,1.94,1.94,0,0,1-1.66,1.79,6,6,0,0,1-3.08-.25,8.16,8.16,0,0,1-3.49-2.29A10.16,10.16,0,0,1,57.82,171.91Z"/><path d="M77.24,124.59l-.83,3.74-13.15,2.42,10.92,7.66-.82,3.74L54.3,145.67l.18-.8,17-3.13L57.37,131.8l.16-.75,4.87-.88,12.18-2.27L60.42,118l1-4.48Z"/><path d="M73.09,96.61a9.44,9.44,0,0,1,4.69-1.17,8.89,8.89,0,0,1,4.62,1.37,9,9,0,0,1,3.33,3.52,9.32,9.32,0,0,1,1.08,4.7,9.55,9.55,0,0,1-1.47,4.77l-.51.83a9.58,9.58,0,0,1-3.61,3.49,9.25,9.25,0,0,1-4.68,1.17,9.42,9.42,0,0,1-8-4.89,9.26,9.26,0,0,1-1.06-4.7A9.63,9.63,0,0,1,69,100.9l.51-.83A9.59,9.59,0,0,1,73.09,96.61Zm10.27,6.65a8.38,8.38,0,0,0,.16-3.62,3.34,3.34,0,0,0-1.46-2.27,3.3,3.3,0,0,0-2.67-.26,8.37,8.37,0,0,0-3.16,1.77,14,14,0,0,0-2.82,3.35l-.72,1.18a14,14,0,0,0-1.72,4,8.3,8.3,0,0,0-.17,3.63,3.28,3.28,0,0,0,1.44,2.26,3.32,3.32,0,0,0,2.69.27,8.07,8.07,0,0,0,3.16-1.78,14,14,0,0,0,2.83-3.36l.72-1.18A13.91,13.91,0,0,0,83.36,103.26Z"/><path d="M104.59,87.54a1.84,1.84,0,0,1-.58,1.3,4.1,4.1,0,0,1-2,1.09,4.28,4.28,0,0,1-2,0A19.89,19.89,0,0,1,97.72,89c-.92-.37-1.65-.64-2.17-.81l-1.72-.69L87,93.9l5.1,5.5-.54.5L79.38,86.81l.55-.51v0l6.17-5.72A11.88,11.88,0,0,1,89.83,78a3.32,3.32,0,0,1,2.78.2A14.57,14.57,0,0,1,95.81,81a3.44,3.44,0,0,1,.81,2.7,4.22,4.22,0,0,1-1.41,2.54l-.79.73,3.93,1.54a15,15,0,0,0,2.11.68,3.32,3.32,0,0,0,1.66,0,1.71,1.71,0,0,1-.72-.47,1.86,1.86,0,0,1,.1-2.64,1.83,1.83,0,0,1,1.32-.5,1.78,1.78,0,0,1,1.29.59A1.75,1.75,0,0,1,104.59,87.54Zm-8.68-3.91a2.3,2.3,0,0,0-.63-2.1,2,2,0,0,0-2.07-.64,5.69,5.69,0,0,0-2.43,1.44L83,89.58l3.5,3.77,8.25-7.64A3.74,3.74,0,0,0,95.91,83.63Z"/><path d="M118.45,78.27a2.75,2.75,0,0,0,1.49.4,1.86,1.86,0,0,1,1.63-3.29,1.68,1.68,0,0,1,1.07.87,1.73,1.73,0,0,1,.07,1.49,2.16,2.16,0,0,1-1.06,1.19,4,4,0,0,1-1.86.51,3.67,3.67,0,0,1-1.63-.43,14.55,14.55,0,0,1-2-1.29l-4.13-3.08-1.44,9.61-4,2.06L98.41,70.48l.66-.34,7.31,14,2.91-19.35,4.61-2.4-1.7,11.41,4.44,3.32A12.05,12.05,0,0,0,118.45,78.27Z"/><path d="M128.51,57.76a10.2,10.2,0,0,1,6.42.39,9.25,9.25,0,0,1,4.54,4.4l-1,.44a7.68,7.68,0,0,0-3.86-1.4,15.18,15.18,0,0,0-4.49.4l-1.34.31a22,22,0,0,0-3.2,1,10.5,10.5,0,0,0-2.73,1.59,1.88,1.88,0,0,0-.86,1.85,1,1,0,0,0,.73.75,4.85,4.85,0,0,0,1.88.07,29.41,29.41,0,0,0,3.53-.65l6.73-1.56a9.25,9.25,0,0,1,3.29-.22A2.09,2.09,0,0,1,140,67a6,6,0,0,1-.3,3.58,7.75,7.75,0,0,1-2.42,3.26,10.12,10.12,0,0,1-4.24,2q-7.62,1.77-11.22-4.73l1-.43a9.47,9.47,0,0,0,3.88,1.42,13.58,13.58,0,0,0,4.5-.38l1.34-.31a18.25,18.25,0,0,0,3.22-1.09,9.67,9.67,0,0,0,2.65-1.62,1.85,1.85,0,0,0,.81-1.8,1.23,1.23,0,0,0-1.12-.93,6.79,6.79,0,0,0-2.27.06c-.9.14-2.13.4-3.7.76L126.55,68a11.21,11.21,0,0,1-3.63.33,2,2,0,0,1-1.78-1.67,6,6,0,0,1,.26-3.09,8.26,8.26,0,0,1,2.31-3.47A10.14,10.14,0,0,1,128.51,57.76Z"/></svg>