<svg id="Layer_1" data-name="Layer 1" xmlns="http://www.w3.org/2000/svg" viewBox="0 0 300 300"><title>nav</title><path d="M170,19.25l8,25-1.07-.14-2.87-8.93-13.39-1.72-5.13,7.92-6.2-.8,14.42-22.15Zm-8.69,13.32,12.44,1.59-4.47-13.84Z"/><path d="M202,50.29a4.2,4.2,0,0,1-3.17,1.5,14.79,14.79,0,0,1-6.17-1.45l-12.31-5,9-22,11.31,4.61A16.37,16.37,0,0,1,206,31a4,4,0,0,1,1.26,3.21,19.53,19.53,0,0,1-1.48,4.9,3.31,3.31,0,0,1-1.18,1.36,4.19,4.19,0,0,1-2.12.79,5.53,5.53,0,0,1,1.65,2.18,3.3,3.3,0,0,1,0,2.63A18.11,18.11,0,0,1,202,50.29Zm-.64-3.64a2.22,2.22,0,0,0,2-1.31,1.92,1.92,0,0,0-.1-1.73,4.65,4.65,0,0,0-1.29-1.48,6.34,6.34,0,0,0-1.52-.91l-14.89-6.08-2.05,5,14.14,5.76A7.58,7.58,0,0,0,201.32,46.65Zm-1.54-6.76a6,6,0,0,0,2.91.42,2.27,2.27,0,0,0,2.05-1.41,2.14,2.14,0,0,0-.66-2.49,9.35,9.35,0,0,0-3-1.9L188,29.16l-2.07,5.07Z"/><path d="M233.24,48.79a12.52,12.52,0,0,1,1,6.35,12.38,12.38,0,0,1-7.41,10,12.46,12.46,0,0,1-6.37.89,12.83,12.83,0,0,1-6.17-2.5l-1-.77a13,13,0,0,1-4.23-5.2,12.27,12.27,0,0,1-1-6.36,12.46,12.46,0,0,1,7.42-10,12.27,12.27,0,0,1,6.36-.87A12.92,12.92,0,0,1,228,42.84l1,.77A12.76,12.76,0,0,1,233.24,48.79Zm-10,12.86a11,11,0,0,0,4.78.63,4.12,4.12,0,0,0,3.85-5.19,11.1,11.1,0,0,0-2-4.4,18.58,18.58,0,0,0-4.13-4.13l-1.48-1.1a18.51,18.51,0,0,0-5.17-2.75,11,11,0,0,0-4.8-.64,4.11,4.11,0,0,0-3.84,5.19,11,11,0,0,0,2,4.41,19.15,19.15,0,0,0,4.14,4.15l1.48,1.09A18.3,18.3,0,0,0,223.22,61.65Z"/><path d="M235,68.9a9.4,9.4,0,0,0,.35,4.43,13,13,0,0,0,2.47,4.53,13.42,13.42,0,0,0,3.93,3.34A9.25,9.25,0,0,0,246,82.46a5.19,5.19,0,0,0,3.5-1.12l8.88-7.24.62.76-8.82,7.2a14.88,14.88,0,0,1-5.57,2.81,12.42,12.42,0,0,1-6.23.1,9.34,9.34,0,0,1-5.17-3.32l0,0A9.38,9.38,0,0,1,231,75.81a12.4,12.4,0,0,1,1.4-6.08,14.9,14.9,0,0,1,3.83-4.82l8.83-7.2.62.76-8.87,7.25A5.11,5.11,0,0,0,235,68.9Z"/><path d="M246.9,102.13,263,94.36l-5-10.22,5.36-2.6,10.33,21.37-5.35,2.59-5-10.25L247.33,103Z"/><path d="M278.23,142.12,257,130.63l-.34-6.63,24.53,13.33.29,5.61L261,144l21.13,11.5.29,5.6-23.76,1.24-.06-1,20.58-1.07L258,148.79l-.29-5.6Z"/><path d="M258.06,186.8l-5.78-1.43,4.83-19.64,23.11,5.68-4.83,19.65-5.78-1.42,4.61-18.76-5.31-1.3-4,16-1-.23,3.95-16-5.28-1.3Z"/><path d="M257.87,225.15l-26-3.88.6-.91,9.28,1.39,7.47-11.24-4.83-8.1,3.47-5.21,13.46,22.74Zm-8.08-13.7-6.95,10.45L257.23,224Z"/><path d="M215.92,240.11a4.25,4.25,0,0,1,.05-3.51,14.64,14.64,0,0,1,4-4.89l9.93-8.84,15.83,17.77-9.12,8.12a16.23,16.23,0,0,1-5.22,3.49A4,4,0,0,1,228,252a19.71,19.71,0,0,1-3.75-3.49,3.42,3.42,0,0,1-.7-1.65,4.2,4.2,0,0,1,.23-2.25,5.54,5.54,0,0,1-2.68.52,3.32,3.32,0,0,1-2.36-1.18A17.9,17.9,0,0,1,215.92,240.11Zm3.55,1a2.23,2.23,0,0,0,.29,2.38,2,2,0,0,0,1.6.67,4.69,4.69,0,0,0,1.9-.51,6.86,6.86,0,0,0,1.49-1l12-10.69L233.14,228l-11.4,10.15A7.61,7.61,0,0,0,219.47,241.14Zm6.74,1.59a6.15,6.15,0,0,0-1.65,2.44,2.25,2.25,0,0,0,.36,2.45,2.14,2.14,0,0,0,2.52.51,9.07,9.07,0,0,0,3-1.85l10.59-9.43-3.64-4.09Z"/><path d="M203.49,268.89a12.45,12.45,0,0,1-6.15-1.9,12.36,12.36,0,0,1-5.72-11.05,12.46,12.46,0,0,1,2-6.11,12.68,12.68,0,0,1,5-4.44l1.15-.59a12.85,12.85,0,0,1,6.54-1.51,12.21,12.21,0,0,1,6.14,1.89,12.49,12.49,0,0,1,5.73,11.07,12.32,12.32,0,0,1-2,6.1,12.84,12.84,0,0,1-5,4.46l-1.14.59A12.75,12.75,0,0,1,203.49,268.89Zm-7.15-14.66a10.93,10.93,0,0,0-2.66,4,4.43,4.43,0,0,0,.1,3.6,4.35,4.35,0,0,0,2.87,2.13,10.94,10.94,0,0,0,4.82.15,18.52,18.52,0,0,0,5.53-1.89l1.63-.84a18.67,18.67,0,0,0,4.75-3.43,11,11,0,0,0,2.68-4,4.34,4.34,0,0,0-.09-3.58,4.43,4.43,0,0,0-2.88-2.16,11,11,0,0,0-4.83-.14,18.75,18.75,0,0,0-5.55,1.9l-1.63.84A18.62,18.62,0,0,0,196.34,254.23Z"/><path d="M184.65,261.59a9.5,9.5,0,0,0-4.13-1.65,14.12,14.12,0,0,0-9.89,2.26,9.12,9.12,0,0,0-3,3.27,5.18,5.18,0,0,0-.54,3.63l2.57,11.17-1,.22-2.55-11.1a14.69,14.69,0,0,1-.05-6.23,12.45,12.45,0,0,1,2.66-5.64,9.39,9.39,0,0,1,5.28-3.16h0a9.42,9.42,0,0,1,6.2.56,12.46,12.46,0,0,1,4.83,4,15,15,0,0,1,2.63,5.57l2.55,11.1-1,.22-2.57-11.16A5.16,5.16,0,0,0,184.65,261.59Z"/><path d="M149.61,257.56l-.29,17.85,11.35.19-.09,5.95-23.73-.39.1-6,11.38.19.29-17.85Z"/><path d="M99.85,268.08l19.67-14,6.1,2.61-22.78,16.14-5.16-2.21,8.07-18.85L86.12,265.67,81,263.47l9.37-21.88.91.39-8.11,18.94,19.67-14,5.16,2.21Z"/><path d="M68.7,230.22l3.83-4.56,15.49,13L72.7,256.9l-15.49-13L61,239.32l14.78,12.43,3.53-4.19L66.7,236.93l.64-.76L80,246.81l3.5-4.16Z"/><path d="M34.35,213.19l14.91-21.64.55.94-5.33,7.73,6.82,11.65,9.4-.78,3.16,5.4-26.35,2.1ZM50.21,212l-6.34-10.83-8.23,12Z"/><path d="M39.41,168.92a4.24,4.24,0,0,1,3.13,1.6,14.86,14.86,0,0,1,2.61,5.77L48.7,189.1l-22.94,6.35L22.5,183.68a16.28,16.28,0,0,1-.82-6.23,4,4,0,0,1,1.78-3,20.2,20.2,0,0,1,4.78-1.82,3.46,3.46,0,0,1,1.8.11A4.21,4.21,0,0,1,32,174a5.49,5.49,0,0,1,.71-2.64,3.36,3.36,0,0,1,2.1-1.6A18.68,18.68,0,0,1,39.41,168.92ZM32.51,177a6.07,6.07,0,0,0-1.45-2.56,2.24,2.24,0,0,0-2.36-.76,2.13,2.13,0,0,0-1.57,2,9.22,9.22,0,0,0,.32,3.52l3.78,13.67,5.27-1.46Zm4.41-5.35a2.22,2.22,0,0,0-2.26-.78A1.93,1.93,0,0,0,33.35,172a4.72,4.72,0,0,0-.39,1.93,7.25,7.25,0,0,0,.21,1.76l4.28,15.5,5.25-1.45L38.63,175A7.81,7.81,0,0,0,36.92,171.65Z"/><path d="M19.12,145.08a12.4,12.4,0,0,1,4.41-4.68A12.35,12.35,0,0,1,36,140.16a12.33,12.33,0,0,1,4.6,4.5,12.72,12.72,0,0,1,1.79,6.4l0,1.3a13,13,0,0,1-1.54,6.52,12.26,12.26,0,0,1-4.41,4.68,12.49,12.49,0,0,1-12.46.25,12.35,12.35,0,0,1-4.58-4.5,12.92,12.92,0,0,1-1.8-6.46l0-1.29A12.63,12.63,0,0,1,19.12,145.08Zm16.3.07A11,11,0,0,0,33,141a4.44,4.44,0,0,0-3.28-1.5,4.36,4.36,0,0,0-3.18,1.63,10.89,10.89,0,0,0-2.26,4.26,18.34,18.34,0,0,0-.76,5.8l0,1.83a18.71,18.71,0,0,0,1,5.78A11,11,0,0,0,27,163a4.41,4.41,0,0,0,3.24,1.5,4.46,4.46,0,0,0,3.22-1.63,11,11,0,0,0,2.26-4.28,18.78,18.78,0,0,0,.75-5.81l0-1.84A18.25,18.25,0,0,0,35.42,145.15Z"/><path d="M34,131.38a9.45,9.45,0,0,0,3.3-3,13.16,13.16,0,0,0,2.07-4.71,13.59,13.59,0,0,0,.25-5.17A9.06,9.06,0,0,0,38,114.37a5.15,5.15,0,0,0-3-2.09l-11.15-2.61.22-1,11.09,2.59A14.52,14.52,0,0,1,40.72,114a12.3,12.3,0,0,1,3.89,4.87,9.42,9.42,0,0,1,.53,6.13v0a9.43,9.43,0,0,1-3.23,5.32,12.3,12.3,0,0,1-5.67,2.6,14.82,14.82,0,0,1-6.16-.09L19,130.27l.22-1,11.16,2.6A5.11,5.11,0,0,0,34,131.38Z"/><path d="M53,101.69l-16-8L32,103.84l-5.32-2.67L37.27,80l5.32,2.66-5.1,10.19,16,8Z"/><path d="M65.54,52.44l3.89,23.82-5,4.33L60,53l4.25-3.66L77.57,64.92,73.74,41.17,78,37.51,93.51,55.56l-.75.64L79.33,40.58,83.22,64.4,79,68.06Z"/><path d="M113.26,41.12l2.4,5.45L97.15,54.73,87.54,33l18.51-8.17,2.41,5.45L90.79,38,93,43l15.11-6.67.4.9L93.39,43.94l2.2,5Z"/></svg>