<svg id="Layer_1" data-name="Layer 1" xmlns="http://www.w3.org/2000/svg" viewBox="0 0 300 300"><defs><style>.cls-1{font-size:37px;fill:#604440;font-family:Misto-Regular, Misto;}</style></defs><title>navi</title><text class="cls-1" transform="translate(207.5 22.96) rotate(-162.21)">a</text><text class="cls-1" transform="translate(170.48 12.34) rotate(-177.18)">b</text><text class="cls-1" transform="translate(137.13 11.24) rotate(168.46)">o</text><text class="cls-1" transform="translate(100.92 19.78) rotate(153.88)">u</text><text class="cls-1" transform="translate(71.97 34.79) rotate(140.38)">t</text><text class="cls-1" transform="translate(48.3 55.87) rotate(130.9)"> </text><text class="cls-1" transform="translate(37.06 66.95) rotate(117.5)">m</text><text class="cls-1" transform="translate(15.96 112.85) rotate(100.33)">e</text><text class="cls-1" transform="matrix(-0.02, 1, -1, -0.02, 11.64, 142.25)"> </text><text class="cls-1" transform="matrix(0.16, 0.99, -0.99, 0.16, 10.77, 157.06)">a</text><text class="cls-1" transform="translate(18.23 194.89) rotate(65.56)">b</text><text class="cls-1" transform="translate(32.56 225.03) rotate(51.09)">o</text><text class="cls-1" transform="matrix(0.8, 0.6, -0.6, 0.8, 56.74, 253.23)">u</text><text class="cls-1" transform="translate(83.32 272.15) rotate(23.18)">t</text><text class="cls-1" transform="matrix(0.97, 0.23, -0.23, 0.97, 112.92, 283.56)"> </text><text class="cls-1" transform="translate(128.21 288.15) rotate(0.93)">m</text><text class="cls-1" transform="translate(178.37 286.16) rotate(-16.84)">e</text><text class="cls-1" transform="translate(206.53 276.56) rotate(-26.02)"> </text><text class="cls-1" transform="translate(220.1 270.53) rotate(-36.78)">a</text><text class="cls-1" transform="translate(250.22 246.55) rotate(-51.62)">b</text><text class="cls-1" transform="translate(270.5 220.03) rotate(-66.11)">o</text><text class="cls-1" transform="matrix(0.16, -0.99, 0.99, 0.16, 284.54, 185.57)">u</text><text class="cls-1" transform="translate(289.09 153.31) rotate(-94.06)">t</text><text class="cls-1" transform="translate(285.7 121.78) rotate(-103.61)"> </text><text class="cls-1" transform="translate(283.19 106.15) rotate(-117.14)">m</text><text class="cls-1" transform="matrix(-0.7, -0.72, 0.72, -0.7, 258, 62.41)">e</text><text class="cls-1" transform="matrix(-0.8, -0.6, 0.6, -0.8, 236.59, 41.8)"> </text></svg>