<svg id="Layer_1" data-name="Layer 1" xmlns="http://www.w3.org/2000/svg" viewBox="0 0 300 300"><defs><style>.cls-1{font-size:33px;fill:#604440;font-family:Misto-Regular, Misto;}</style></defs><title>navi</title><text class="cls-1" transform="matrix(-0.95, 0.31, -0.31, -0.95, 140.81, 53.01)">w</text><text class="cls-1" transform="matrix(-0.73, 0.68, -0.68, -0.73, 95.42, 71.05)">o</text><text class="cls-1" transform="translate(70.98 95.73) rotate(116.88)">r</text><text class="cls-1" transform="matrix(-0.12, 0.99, -0.99, -0.12, 57.24, 125.62)">k</text><text class="cls-1" transform="translate(54.33 156.56) rotate(78.32)">s</text><text class="cls-1" transform="translate(62.48 187.24) rotate(64.43)"> </text><text class="cls-1" transform="translate(67.91 202.42) rotate(44.7)">w</text><text class="cls-1" transform="translate(104.65 234.61) rotate(20.02)">o</text><text class="cls-1" transform="matrix(1, -0.02, 0.02, 1, 137.94, 245.2)">r</text><text class="cls-1" transform="translate(170.63 243.67) rotate(-20.22)">k</text><text class="cls-1" transform="translate(199.55 232.11) rotate(-38.95)">s</text><text class="cls-1" transform="matrix(0.61, -0.79, 0.79, 0.61, 223.04, 210.89)"> </text><text class="cls-1" transform="translate(234.16 199.09) rotate(-72.5)">w</text><text class="cls-1" transform="translate(245.95 151.74) rotate(-97.06)">o</text><text class="cls-1" transform="translate(240.19 117.45) rotate(-117.54)">r</text><text class="cls-1" transform="matrix(-0.74, -0.68, 0.68, -0.74, 223.89, 88.89)">k</text><text class="cls-1" transform="translate(200.48 68.45) rotate(-156.02)">s</text><text class="cls-1" transform="translate(170.8 57.19) rotate(-169.92)"> </text></svg>