<svg id="Layer_1" data-name="Layer 1" xmlns="http://www.w3.org/2000/svg" viewBox="0 0 300 300"><defs><style>.cls-1{font-size:25px;fill:#604440;font-family:Misto-Regular, Misto;}</style></defs><title>navi</title><text class="cls-1" transform="translate(152.06 245.58) rotate(-7.62)">a</text><text class="cls-1" transform="translate(177.72 241.35) rotate(-22.41)">b</text><text class="cls-1" transform="matrix(0.8, -0.6, 0.6, 0.8, 198.39, 232.42)">o</text><text class="cls-1" transform="translate(218.05 216.88) rotate(-50.81)">u</text><text class="cls-1" transform="matrix(0.44, -0.9, 0.9, 0.44, 231.59, 199.52)">t</text><text class="cls-1" transform="translate(240.24 179.95) rotate(-73.54)"> </text><text class="cls-1" transform="matrix(0.06, -1, 1, 0.06, 244.03, 170.01)">m</text><text class="cls-1" transform="translate(244.34 135.97) rotate(-103.43)">e</text><text class="cls-1" transform="translate(239.02 116.61) rotate(-112.47)"> </text><text class="cls-1" transform="translate(235.52 107.22) rotate(-123.08)">a</text><text class="cls-1" transform="matrix(-0.74, -0.67, 0.67, -0.74, 220.71, 85.9)">b</text><text class="cls-1" transform="translate(203.8 71.01) rotate(-151.9)">o</text><text class="cls-1" transform="translate(181.34 59.85) rotate(-166.22)">u</text><text class="cls-1" transform="translate(159.74 55.15) rotate(-179.07)">t</text><text class="cls-1" transform="matrix(-0.99, 0.15, -0.15, -0.99, 138.47, 55.64)"> </text><text class="cls-1" transform="translate(127.85 56.44) rotate(157.92)">m</text><text class="cls-1" transform="translate(96.93 70.75) rotate(141.13)">e</text><text class="cls-1" transform="translate(81.76 83.84) rotate(132.25)"> </text><text class="cls-1" transform="translate(74.76 91.01) rotate(121.69)">a</text><text class="cls-1" transform="translate(61.77 113.53) rotate(106.93)">b</text><text class="cls-1" transform="translate(55.58 135.18) rotate(92.66)">o</text><text class="cls-1" transform="translate(55.12 160.22) rotate(78.57)">u</text><text class="cls-1" transform="translate(59.97 181.72) rotate(65.16)">t</text><text class="cls-1" transform="translate(69.65 200.8) rotate(55.76)"> </text><text class="cls-1" transform="matrix(0.74, 0.68, -0.68, 0.74, 74.93, 210.02)">m</text><text class="cls-1" transform="matrix(0.9, 0.44, -0.44, 0.9, 101.04, 231.86)">e</text><text class="cls-1" transform="matrix(0.96, 0.29, -0.29, 0.96, 119.39, 240.01)"> </text></svg>