<svg id="Layer_1" data-name="Layer 1" xmlns="http://www.w3.org/2000/svg" viewBox="0 0 300 300"><defs><style>.cls-1{font-size:29px;fill:#604440;font-family:Misto-Regular, Misto;}</style></defs><title>navi</title><text class="cls-1" transform="translate(142.3 53.79) rotate(165.35)">M</text><text class="cls-1" transform="matrix(-0.8, 0.6, -0.6, -0.8, 103.4, 66.26)">a</text><text class="cls-1" transform="translate(80.68 85) rotate(131.78)">i</text><text class="cls-1" transform="matrix(-0.51, 0.86, -0.86, -0.51, 74.2, 91.57)">n</text><text class="cls-1" transform="matrix(-0.32, 0.95, -0.95, -0.32, 61.14, 116.13)"> </text><text class="cls-1" transform="translate(55.99 128.14) rotate(92.93)">m</text><text class="cls-1" transform="translate(56.06 168.98) rotate(71.1)">a</text><text class="cls-1" transform="translate(67.02 196.34) rotate(59.37)">i</text><text class="cls-1" transform="matrix(0.66, 0.75, -0.75, 0.66, 71.3, 204.47)">n</text><text class="cls-1" transform="translate(90.76 224.36) rotate(36.41)"> </text><text class="cls-1" transform="translate(100.63 232.94) rotate(20.66)">m</text><text class="cls-1" transform="translate(139.6 245.24) rotate(-1.22)">a</text><text class="cls-1" transform="translate(168.94 243.14) rotate(-12.84)">i</text><text class="cls-1" transform="translate(178.02 241.54) rotate(-24.01)">n</text><text class="cls-1" transform="translate(202.87 229.02) rotate(-36.02)"> </text><text class="cls-1" transform="matrix(0.62, -0.78, 0.78, 0.62, 213.99, 222.22)">m</text><text class="cls-1" transform="translate(237.6 188.88) rotate(-73.57)">a</text><text class="cls-1" transform="matrix(0.08, -1, 1, 0.08, 244.49, 160.2)">i</text><text class="cls-1" transform="matrix(-0.11, -0.99, 0.99, -0.11, 245.69, 151.11)">n</text><text class="cls-1" transform="translate(241.36 123.63) rotate(-108.27)"> </text><text class="cls-1" transform="translate(238.26 110.93) rotate(-124.04)">m</text><text class="cls-1" transform="translate(213.64 78.37) rotate(-145.81)">a</text><text class="cls-1" transform="translate(188.44 63.07) rotate(-157.52)">i</text><text class="cls-1" transform="translate(180.09 59.11) rotate(-168.7)">n</text></svg>