<svg id="Layer_1" data-name="Layer 1" xmlns="http://www.w3.org/2000/svg" viewBox="0 0 300 300"><defs><style>.cls-1{font-size:49px;fill:#604440;font-family:Misto-Regular, Misto;}</style></defs><title>navi</title><text class="cls-1" transform="translate(164.44 290.98) rotate(-18.59)">w</text><text class="cls-1" transform="matrix(0.72, -0.69, 0.69, 0.72, 231.86, 263.4)">o</text><text class="cls-1" transform="matrix(0.43, -0.9, 0.9, 0.43, 267.62, 225.85)">r</text><text class="cls-1" transform="translate(286.85 180.65) rotate(-85.13)">k</text><text class="cls-1" transform="translate(289.54 134.36) rotate(-104.13)">s</text><text class="cls-1" transform="translate(275.38 89.22) rotate(-118.35)"> </text><text class="cls-1" transform="matrix(-0.75, -0.66, 0.66, -0.75, 266.09, 66.82)">w</text><text class="cls-1" transform="translate(208.57 22.09) rotate(-163.84)">o</text><text class="cls-1" transform="translate(158.17 9.94) rotate(175.42)">r</text><text class="cls-1" transform="translate(109.42 15.79) rotate(154.95)">k</text><text class="cls-1" transform="translate(67.93 36.63) rotate(135.85)">s</text><text class="cls-1" transform="matrix(-0.53, 0.85, -0.85, -0.53, 35.95, 71.39)"> </text><text class="cls-1" transform="translate(21.07 90.64) rotate(101.43)">w</text><text class="cls-1" transform="matrix(0.24, 0.97, -0.97, 0.24, 11.14, 162.77)">o</text><text class="cls-1" transform="matrix(0.57, 0.82, -0.82, 0.57, 25.72, 212.58)">r</text><text class="cls-1" transform="matrix(0.82, 0.57, -0.57, 0.82, 55.17, 251.8)">k</text><text class="cls-1" transform="translate(93.92 277.44) rotate(15.88)">s</text><text class="cls-1" transform="matrix(1, 0.03, -0.03, 1, 140.02, 287.74)"> </text></svg>