<svg id="Layer_1" data-name="Layer 1" xmlns="http://www.w3.org/2000/svg" viewBox="0 0 300 300"><defs><style>.cls-1{font-size:42px;fill:#604440;font-family:Misto-Regular, Misto;}</style></defs><title>navi</title><text class="cls-1" transform="matrix(0.97, -0.25, 0.25, 0.97, 161.83, 289.72)">m</text><text class="cls-1" transform="translate(218.13 271.74) rotate(-36.43)">a</text><text class="cls-1" transform="matrix(0.67, -0.74, 0.74, 0.67, 251.08, 244.77)">i</text><text class="cls-1" transform="matrix(0.52, -0.86, 0.86, 0.52, 260.45, 235.39)">n</text><text class="cls-1" transform="translate(279.62 199.98) rotate(-70.82)"> </text><text class="cls-1" transform="matrix(0.06, -1, 1, 0.06, 287.21, 182.7)">m</text><text class="cls-1" transform="translate(287.8 123.69) rotate(-108.07)">a</text><text class="cls-1" transform="translate(272.54 83.86) rotate(-119.72)">i</text><text class="cls-1" transform="matrix(-0.65, -0.76, 0.76, -0.65, 266.55, 72.04)">n</text><text class="cls-1" transform="translate(238.96 42.8) rotate(-142.47)"> </text><text class="cls-1" transform="translate(224.96 30.14) rotate(-158.07)">m</text><text class="cls-1" transform="translate(169.29 11.29) rotate(-179.07)">a</text><text class="cls-1" transform="translate(126.52 13.03) rotate(168.7)">i</text><text class="cls-1" transform="translate(113.37 14.97) rotate(157.63)">n</text><text class="cls-1" transform="matrix(-0.83, 0.56, -0.56, -0.83, 76.93, 32.02)"> </text><text class="cls-1" transform="matrix(-0.65, 0.76, -0.76, -0.65, 60.58, 41.35)">m</text><text class="cls-1" transform="translate(24.85 88.4) rotate(108.5)">a</text><text class="cls-1" transform="translate(13.4 129.47) rotate(96.85)">i</text><text class="cls-1" transform="matrix(0.07, 1, -1, 0.07, 11.17, 142.49)">n</text><text class="cls-1" transform="matrix(0.27, 0.96, -0.96, 0.27, 15.85, 182.47)"> </text><text class="cls-1" transform="matrix(0.52, 0.85, -0.85, 0.52, 19.55, 200.98)">m</text><text class="cls-1" transform="matrix(0.8, 0.6, -0.6, 0.8, 53.06, 249.56)">a</text><text class="cls-1" transform="translate(88.41 273.38) rotate(25.27)">i</text><text class="cls-1" transform="translate(100.14 279.66) rotate(14.19)">n</text></svg>