<svg id="Layer_1" data-name="Layer 1" xmlns="http://www.w3.org/2000/svg" viewBox="0 0 500 500"><defs><style>.cls-1{fill:#604440;}.cls-2{fill:#f9f6ed;}</style></defs><title>social</title><polygon class="cls-1" points="43.48 406.33 125 468.79 384.38 468.79 453.13 406.33 464.92 328.13 464.92 115.63 425.6 46.88 314.56 17.71 111 17.71 30.04 98.97 43.48 406.33"/><path class="cls-2" d="M343.75,0H156.25A156.27,156.27,0,0,0,0,156.25v187.5A156.27,156.27,0,0,0,156.25,500h187.5A156.27,156.27,0,0,0,500,343.75V156.25A156.27,156.27,0,0,0,343.75,0ZM453.12,343.75A109.49,109.49,0,0,1,343.75,453.12H156.25A109.49,109.49,0,0,1,46.88,343.75V156.25A109.5,109.5,0,0,1,156.25,46.87h187.5A109.5,109.5,0,0,1,453.12,156.25Z"/><path class="cls-2" d="M250,125A125,125,0,1,0,375,250,125,125,0,0,0,250,125Zm0,203.12A78.13,78.13,0,1,1,328.12,250,78.24,78.24,0,0,1,250,328.12Z"/><circle class="cls-2" cx="384.38" cy="115.62" r="16.66"/></svg>