<svg id="Layer_1" data-name="Layer 1" xmlns="http://www.w3.org/2000/svg" viewBox="0 0 500 500"><defs><style>.cls-1{fill:#604440;}.cls-2{fill:#f9f6ed;}</style></defs><title>social</title><polygon class="cls-1" points="51.04 435.49 132.56 497.95 391.93 497.95 460.68 435.49 472.48 357.29 472.48 144.79 433.16 76.04 322.12 46.88 118.56 46.88 37.6 128.13 51.04 435.49"/><path class="cls-2" d="M0,0V500H500V0ZM400.83,277.44c12.06,12.44,25,24.08,36.66,36.87a217.59,217.59,0,0,1,23.08,30c8.51,13.43,3.25,26.09-12.65,28.34-10,1.41-58.85,0-61.37,0a47.86,47.86,0,0,1-33.92-13.53c-10.31-9.93-19.68-20.83-29.58-31.19a84.4,84.4,0,0,0-9.6-8.73c-8.1-6.17-16.05-4.8-19.83,4.71-3.24,8.17-6,29.62-6.16,31.45-.68,9.58-6.78,15.69-17.51,16.28-31,1.68-61-1.77-89-16.76-23.7-12.69-42.63-30.64-59-51.57-26-33.25-46.62-69.8-65.41-107.42-1-1.92-20-42.41-20.49-44.32-1.7-6.4-.12-12.52,5.29-14.62,3.37-1.32,66.1,0,67.15,0,10,.54,16.83,4.76,21,15.15,12,29.59,27.17,57.49,47.17,82.54a43.59,43.59,0,0,0,9.52,8.71c5.14,3.53,10,2.29,12.09-3.59,2.21-6.18,4.24-18.7,4.36-25.19.33-16.94,0-28-1-45-.59-10.84-4.44-20.36-20.39-23.23-4.92-.9-5.38-4.95-2.22-9,6.59-8.42,15.77-9.76,25.72-10.3,16.13-.87,32.31-.16,48.46,0a95.79,95.79,0,0,1,19.67,2c8.45,1.84,13,7.77,14.37,16a68.5,68.5,0,0,1,1,12.94c-.42,18.5-1.31,37-1.52,55.48a96.74,96.74,0,0,0,2,21.76c2.17,9.85,8.88,12.32,15.74,5.21,8.71-9,16.39-19.21,23.59-29.54,13.1-18.79,22.88-39.42,31.3-60.68,4.35-11,7.68-13.35,19.49-13.38q33.27-.08,66.55,0a40,40,0,0,1,11.76,1.57c6,1.92,8.42,6.84,7,13.07-3.29,14.62-11.19,27-19.65,39-13.58,19.16-27.8,37.86-41.7,56.8a70.29,70.29,0,0,0-4.78,7.6C392.89,264.35,393.25,269.62,400.83,277.44Z"/></svg>