<svg id="Layer_1" data-name="Layer 1" xmlns="http://www.w3.org/2000/svg" viewBox="0 0 500 500"><defs><style>.cls-1{fill:#604440;}.cls-2{fill:#f9f6ed;}</style></defs><title>social</title><polygon class="cls-1" points="46 413.08 127.52 475.54 386.89 475.54 455.64 413.08 467.44 334.88 467.44 122.38 428.12 53.63 317.08 24.46 113.52 24.46 32.56 105.72 46 413.08"/><g id="post-linkedin"><path class="cls-2" d="M450,0H50A50.15,50.15,0,0,0,0,50V450a50.15,50.15,0,0,0,50,50H450a50.15,50.15,0,0,0,50-50V50A50.15,50.15,0,0,0,450,0ZM150,425H75V200h75ZM112.5,157.5a45,45,0,1,1,45-45A44.81,44.81,0,0,1,112.5,157.5ZM425,425H350V292.5c0-20-17.5-37.5-37.5-37.5S275,272.5,275,292.5V425H200V200h75v30c12.5-20,40-35,62.5-35,47.5,0,87.5,40,87.5,87.5Z"/></g></svg>