<svg id="Layer_1" data-name="Layer 1" xmlns="http://www.w3.org/2000/svg" viewBox="0 0 500 500"><defs><style>.cls-1{fill:#604440;}.cls-2{fill:#f9f6ed;}</style></defs><title>social</title><polygon class="cls-1" points="48.52 435.49 130.04 497.95 389.41 497.95 458.16 435.49 469.96 357.29 469.96 144.79 430.64 76.04 319.6 46.88 116.04 46.88 35.08 128.13 48.52 435.49"/><path class="cls-2" d="M432.62,0H67.38A67.38,67.38,0,0,0,0,67.38V432.62A67.38,67.38,0,0,0,67.38,500H247.51l.31-178.67H201.4a11,11,0,0,1-11-10.91l-.22-57.6a11,11,0,0,1,11-11h46.34V186.18c0-64.58,39.44-99.75,97-99.75h47.27a11,11,0,0,1,11,10.95V146a11,11,0,0,1-10.94,11h-29c-31.33,0-37.4,14.89-37.4,36.74v48.18h68.84a11,11,0,0,1,10.88,12.24l-6.83,57.59a10.94,10.94,0,0,1-10.87,9.67H325.75L325.44,500H432.62A67.38,67.38,0,0,0,500,432.63V67.38A67.38,67.38,0,0,0,432.62,0Z"/></svg>